<?xml version="1.0" standalone="no"?>
<!DOCTYPE svg PUBLIC "-//W3C//DTD SVG 20010904//EN"
 "http://www.w3.org/TR/2001/REC-SVG-20010904/DTD/svg10.dtd">
<svg version="1.0" xmlns="http://www.w3.org/2000/svg"
 width="1750.000000pt" height="1750.000000pt" viewBox="0 0 1750.000000 1750.000000"
 preserveAspectRatio="xMidYMid meet">
<metadata>
Created by potrace 1.11, written by Peter Selinger 2001-2013
</metadata>
<g transform="translate(0.000000,1750.000000) scale(0.100000,-0.100000)"
fill="#000000" stroke="none">
<path d="M7060 15239 c-2049 -96 -3986 -839 -5580 -2142 -347 -284 -735 -652
-783 -743 -84 -159 -75 -361 21 -510 93 -144 243 -225 419 -225 169 0 249 42
450 235 557 536 1126 960 1783 1326 2316 1293 5141 1422 7570 345 2388 -1059
4176 -3180 4804 -5700 161 -646 232 -1182 255 -1925 8 -229 11 -261 31 -315
116 -307 476 -428 744 -250 91 60 152 138 197 250 23 59 24 67 23 330 -6 1079
-245 2289 -656 3320 -209 526 -487 1078 -773 1535 -705 1129 -1662 2121 -2755
2856 -1064 715 -2204 1191 -3445 1439 -752 150 -1545 210 -2305 174z"/>
<path d="M7105 13239 c-1358 -74 -2647 -503 -3770 -1254 -383 -256 -725 -533
-1058 -854 -176 -171 -221 -257 -221 -431 0 -86 5 -116 24 -165 57 -149 156
-247 305 -305 48 -19 80 -23 160 -24 176 -1 238 30 444 224 394 371 729 629
1146 882 760 461 1605 760 2479 878 335 45 476 54 881 54 419 0 592 -11 935
-60 2032 -290 3808 -1533 4795 -3354 378 -698 630 -1486 725 -2270 28 -234 39
-390 49 -670 8 -218 11 -252 31 -305 116 -307 476 -428 744 -250 91 60 152
138 197 250 23 58 24 67 22 310 -7 1067 -285 2210 -779 3197 -845 1692 -2297
3005 -4059 3673 -962 364 -2025 529 -3050 474z"/>
<path d="M7212 11240 c-787 -47 -1485 -232 -2172 -577 -519 -260 -991 -596
-1370 -973 -156 -155 -200 -244 -200 -405 1 -322 306 -560 615 -480 97 26 170
72 289 184 145 138 229 211 349 305 671 522 1426 831 2285 933 186 22 753 25
937 5 571 -63 1034 -195 1530 -437 1387 -677 2329 -2015 2500 -3550 9 -77 20
-241 24 -365 9 -243 18 -287 77 -388 67 -115 210 -210 348 -232 268 -42 523
144 566 415 17 103 -1 470 -36 755 -76 623 -253 1206 -541 1780 -368 735 -880
1362 -1523 1867 -774 607 -1717 1002 -2680 1123 -326 41 -719 57 -998 40z"/>
<path d="M7388 9234 c-251 -60 -421 -311 -380 -556 38 -221 203 -386 422 -419
264 -41 515 145 561 414 57 341 -267 643 -603 561z"/>
<path d="M5940 8843 c-87 -10 -169 -46 -310 -136 -805 -515 -1369 -1332 -1555
-2252 -53 -265 -69 -424 -69 -705 0 -281 16 -441 69 -705 109 -536 353 -1055
701 -1490 114 -142 388 -417 529 -529 905 -721 2069 -952 3182 -632 411 119
857 352 1208 632 141 113 416 388 529 529 207 259 412 611 529 910 357 907
321 1923 -99 2795 -182 377 -384 662 -683 961 -189 188 -321 298 -534 440
-230 154 -299 183 -437 182 -237 -2 -431 -156 -485 -385 -19 -80 -19 -136 0
-216 36 -154 110 -247 279 -351 548 -340 940 -854 1110 -1452 244 -861 18
-1776 -598 -2416 -481 -501 -1117 -773 -1806 -773 -552 0 -1064 173 -1517 511
-126 94 -378 346 -472 472 -342 458 -511 963 -511 1526 0 542 175 1059 509
1506 96 128 347 379 476 476 56 41 153 107 217 147 179 111 251 205 285 371
49 236 -100 489 -331 560 -66 20 -160 31 -216 24z"/>
<path d="M7388 7484 c-185 -44 -329 -189 -373 -376 -22 -94 -22 -2622 0 -2716
48 -203 209 -351 415 -383 255 -39 501 134 556 390 20 98 20 2604 0 2702 -58
272 -332 448 -598 383z"/>
</g>
</svg>
